<svg width="97" height="60" viewBox="0 0 97 60" xmlns="http://www.w3.org/2000/svg" xmlns:xlink="http://www.w3.org/1999/xlink" overflow="hidden"><defs></defs><path d="M24.4 60C35.1 60.8 45.4 54.2 50.7 44.3 51.8 44.7 52.6 45.7 52.8 46.8 53.6 49 54.2 51.2 54.7 53.5 54.9 54.4 55.7 55 56.6 54.8 56.7 54.8 56.7 54.8 56.8 54.8 57.1 54.7 64.9 52.2 67.3 47 69.2 42.9 66.3 35.5 63 30.3 56.3 32.2 48.5 34.6 47 36.1 42 42.8 37.7 51.3 29 51.3 20 51.3 13 42.5 11.4 34 9.6 25.5 12.5 16.6 19.1 11 21.3 9.1 23.8 7.5 26.4 6.2 25.9 3.1 24.2 0.6 20.6 0.3 7.3-1.3 0 16.3 0 29.7 0 43.1 9.4 58.8 24.4 60Z" fill="#FFFFFF"/><path d="M68.3 4.9C59.3 5.7 49.9 6.6 45.5 6.2 28.3 4.5 11.8 15.6 14.7 32.5 19.5 34.4 25.6 28 29.7 24.4L29.7 24.4C30.3 23.8 31.2 20.5 31.5 17.2 31.6 16.3 32.4 15.6 33.4 15.7 34.3 15.8 35 16.6 34.9 17.6 34.8 18.4 34.6 19.5 34.4 20.7 42.5 15.1 47.7 17.5 57.1 16.2 59.2 15.9 61.7 15.4 64.3 14.8L67.3 9.8C67.8 9 68.8 8.8 69.6 9.3 70.4 9.8 70.6 10.8 70.1 11.6L70.1 11.6 68.7 13.9C73.9 12.6 78.3 11.4 78.3 11.4 79.2 11.1 80.1 11.7 80.4 12.6 80.7 13.5 80.1 14.4 79.2 14.7 57.1 20.9 53.9 20 46.3 20.4 47.2 21 48.1 21.4 49.1 21.7 50 21.8 50.6 22.7 50.5 23.6 50.5 23.6 50.5 23.6 50.5 23.6 49.9 27.1 44.3 23.2 41.5 21.1 32 23.8 24.5 37.5 15.4 36.5 17.6 42.6 22.8 48.2 28.9 48.2 35.6 48.2 39.4 40.7 44.3 34.3 47.4 30.3 71.1 25.4 78.4 22.6 84.7 20.3 94.5 14.5 96.4 9.6 96.9 8.5 96.9 7.1 96.4 6 95.3 2.9 89 3.1 68.3 4.9Z" fill="#FFFFFF"/></svg>